<?xml version="1.0" standalone="no"?><!DOCTYPE svg PUBLIC "-//W3C//DTD SVG 1.1//EN" "http://www.w3.org/Graphics/SVG/1.1/DTD/svg11.dtd"><svg width="40" height="40" viewBox="0 0 40 40" version="1.1" xmlns="http://www.w3.org/2000/svg" xmlns:xlink="http://www.w3.org/1999/xlink"><defs><style type="text/css"><![CDATA[
@font-face { font-family: ifont; src: url("//at.alicdn.com/t/font_1442373896_4754455.eot?#iefix") format("embedded-opentype"), url("//at.alicdn.com/t/font_1442373896_4754455.woff") format("woff"), url("//at.alicdn.com/t/font_1442373896_4754455.ttf") format("truetype"), url("//at.alicdn.com/t/font_1442373896_4754455.svg#ifont") format("svg"); }

]]></style></defs><g class="transform-group"><g transform="scale(0.0390625, 0.0390625)"><path d="M777.727846 689.879885 245.708221 689.879885C235.121658 689.879885 226.483228 698.492682 226.483228 709.104876 226.483228 719.717074 235.121658 728.329871 245.708221 728.329871L777.727846 728.329871C788.365676 728.329871 796.952837 719.717074 796.952837 709.104876 796.952837 698.492682 788.365676 689.879885 777.727846 689.879885L777.727846 689.879885ZM681.500349 322.092961 876.287974 322.092961C876.441774 322.067327 876.62121 322.067327 876.775009 322.092961 887.387203 322.092961 896 313.480164 896 302.867969 896 296.280204 892.667668 290.435807 887.592269 286.975308L613.879644 9.16135C608.419748 3.624552 600.14018 1.984019 592.885949 4.854951 585.68299 7.85405 580.966456 14.851948 580.966456 22.670111L580.966456 221.559067C580.966456 277.003945 626.05547 322.092961 681.500349 322.092961L681.500349 322.092961ZM619.416443 69.579093 830.35306 283.642976 681.500349 283.642976C647.254231 283.642976 619.416443 255.779553 619.416443 221.559067L619.416443 69.579093 619.416443 69.579093ZM777.727846 820.68673 245.708221 820.68673C235.121658 820.68673 226.483228 829.299528 226.483228 839.911726 226.483228 850.549555 235.121658 859.136717 245.708221 859.136717L777.727846 859.136717C788.365676 859.136717 796.952837 850.549555 796.952837 839.911726 796.952837 829.299528 788.365676 820.68673 777.727846 820.68673L777.727846 820.68673ZM245.708221 204.948673 489.993792 204.948673C500.580355 204.948673 509.193151 196.335877 509.193151 185.723681 509.193151 175.111485 500.580355 166.498689 489.993792 166.498689L245.708221 166.498689C235.121658 166.498689 226.483228 175.111485 226.483228 185.723681 226.483228 196.335877 235.121658 204.948673 245.708221 204.948673L245.708221 204.948673ZM876.287974 331.26969C865.650145 331.26969 857.037348 339.882487 857.037348 350.494683L857.037348 914.914831C857.037348 952.595814 826.40553 983.253268 788.724541 983.253268L234.711525 983.253268C197.081806 983.253268 166.449985 952.595814 166.449985 914.914831L166.501252 108.285411C167.654751 71.040192 197.620106 41.895104 234.711525 41.895104L552.744166 41.895104C563.356365 41.895104 571.969162 33.282307 571.969162 22.670111 571.969162 12.057915 563.356365 3.445119 552.744166 3.445119L234.711525 3.445119C176.703314 3.445119 129.871233 48.969901 128.0769 107.670211L128 914.914831C128 973.794575 175.883048 1021.703255 234.711525 1021.703255L788.724541 1021.703255C847.604285 1021.703255 895.487334 973.794575 895.487334 914.914831L895.487334 350.494683C895.487334 339.882487 886.874537 331.26969 876.287974 331.26969L876.287974 331.26969ZM245.708221 335.781155 489.993792 335.781155C500.580355 335.781155 509.193151 327.168359 509.193151 316.556163 509.193151 305.918334 500.580355 297.33117 489.993792 297.33117L245.708221 297.33117C235.121658 297.33117 226.483228 305.918334 226.483228 316.556163 226.483228 327.168359 235.121658 335.781155 245.708221 335.781155L245.708221 335.781155ZM777.727846 428.189286 245.708221 428.189286C235.121658 428.189286 226.483228 436.802083 226.483228 447.414279 226.483228 458.026474 235.121658 466.639271 245.708221 466.639271L777.727846 466.639271C788.365676 466.639271 796.952837 458.026474 796.952837 447.414279 796.952837 436.802083 788.365676 428.189286 777.727846 428.189286L777.727846 428.189286ZM777.727846 559.021768 245.708221 559.021768C235.121658 559.021768 226.483228 567.608929 226.483228 578.246758 226.483228 588.858957 235.121658 597.471754 245.708221 597.471754L777.727846 597.471754C788.365676 597.471754 796.952837 588.858957 796.952837 578.246758 796.952837 567.608929 788.365676 559.021768 777.727846 559.021768L777.727846 559.021768Z" fill="#969696"></path></g></g></svg>